<mxfile host="" modified="2020-05-25T07:07:50.163Z" agent="5.0 (Windows NT 6.1; Win64; x64) AppleWebKit/537.36 (KHTML, like Gecko) Code/1.45.1 Chrome/78.0.3904.130 Electron/7.2.4 Safari/537.36" etag="QXeePCT1MlhtYNmXbm0P" version="13.1.3" pages="2">
    <diagram id="s4bBsXWNL9PoMj3HKTq4" name="overview">
        <mxGraphModel dx="587" dy="294" grid="1" gridSize="10" guides="1" tooltips="1" connect="1" arrows="1" fold="1" page="1" pageScale="1" pageWidth="827" pageHeight="1169" math="0" shadow="0">
            <root>
                <mxCell id="tDDyuxdaU_2UwxTf6ro_-0"/>
                <mxCell id="tDDyuxdaU_2UwxTf6ro_-1" parent="tDDyuxdaU_2UwxTf6ro_-0"/>
                <mxCell id="tDDyuxdaU_2UwxTf6ro_-2" value="&lt;table cellpadding=&quot;4&quot; cellspacing=&quot;0&quot; border=&quot;1&quot; style=&quot;font-size: 1em ; width: 100% ; height: 100%&quot;&gt;&lt;tbody&gt;&lt;tr&gt;&lt;th&gt;format&lt;/th&gt;&lt;th&gt;javascript&lt;br&gt;&lt;/th&gt;&lt;/tr&gt;&lt;tr&gt;&lt;td&gt;json&lt;/td&gt;&lt;td&gt;&lt;font face=&quot;Courier New&quot;&gt;JSON.parse()&lt;br&gt;JSON.stringify()&lt;/font&gt;&lt;/td&gt;&lt;/tr&gt;&lt;/tbody&gt;&lt;/table&gt; " style="verticalAlign=top;align=left;overflow=fill;fontSize=12;fontFamily=Helvetica;html=1" vertex="1" parent="tDDyuxdaU_2UwxTf6ro_-1">
                    <mxGeometry x="40" y="40" width="270" height="130" as="geometry"/>
                </mxCell>
            </root>
        </mxGraphModel>
    </diagram>
    <diagram id="6hGFLwfOUW9BJ-s0fimq" name="json">
        <mxGraphModel dx="587" dy="294" grid="1" gridSize="10" guides="1" tooltips="1" connect="1" arrows="1" fold="1" page="1" pageScale="1" pageWidth="827" pageHeight="1169" math="0" shadow="0">
            <root>
                <mxCell id="0"/>
                <mxCell id="1" parent="0"/>
                <UserObject label="&lt;table cellpadding=&quot;4&quot; cellspacing=&quot;0&quot; border=&quot;1&quot; style=&quot;font-size: 1em ; width: 100% ; height: 100%&quot;&gt;&lt;tbody&gt;&lt;tr&gt;&lt;th&gt;type&lt;/th&gt;&lt;th&gt;content&lt;/th&gt;&lt;/tr&gt;&lt;tr&gt;&lt;td&gt;file extension&lt;/td&gt;&lt;td&gt;&lt;ol&gt;&lt;li&gt;&lt;font face=&quot;Courier New&quot;&gt;.json&lt;/font&gt;&lt;/li&gt;&lt;/ol&gt;&lt;/td&gt;&lt;/tr&gt;&lt;tr&gt;&lt;td&gt;separators&lt;/td&gt;&lt;td&gt;&lt;ol&gt;&lt;li&gt;&lt;font face=&quot;Courier New&quot;&gt;: - &lt;/font&gt;key:value&lt;/li&gt;&lt;li&gt;&lt;font face=&quot;Courier New&quot;&gt;, - &lt;/font&gt;key:value pairs&lt;/li&gt;&lt;li&gt;&lt;font face=&quot;Courier New&quot;&gt;{} - &lt;/font&gt;objects&lt;/li&gt;&lt;li&gt;&lt;font face=&quot;Courier New&quot;&gt;[] - &lt;/font&gt;arrays&lt;/li&gt;&lt;/ol&gt;&lt;/td&gt;&lt;/tr&gt;&lt;tr&gt;&lt;td&gt;data types&lt;/td&gt;&lt;td&gt;&lt;h3&gt;keys:&lt;/h3&gt;&lt;div&gt;&lt;ol&gt;&lt;li&gt;string type&lt;/li&gt;&lt;/ol&gt;&lt;/div&gt;&lt;h3&gt;values:&lt;/h3&gt;&lt;ol&gt;&lt;li&gt;string: &lt;font face=&quot;Courier New&quot;&gt;&quot;purple&quot;&lt;/font&gt; - wrapped by double quotes&lt;/li&gt;&lt;li&gt;number: &lt;font face=&quot;Courier New&quot;&gt;100, -10.2&lt;/font&gt;&lt;/li&gt;&lt;li&gt;boolean: &lt;font face=&quot;Courier New&quot;&gt;[true, false]&lt;/font&gt;&lt;/li&gt;&lt;li&gt;&lt;font face=&quot;Courier New&quot;&gt;null&lt;/font&gt;: &lt;font face=&quot;Courier New&quot;&gt;&quot;age&quot;: null&lt;/font&gt;&lt;/li&gt;&lt;li&gt;object: &lt;font face=&quot;Courier New&quot;&gt;{..., ...}&lt;/font&gt;&lt;/li&gt;&lt;li&gt;array: &lt;font face=&quot;Courier New&quot;&gt;[..., ...]&lt;/font&gt;&lt;/li&gt;&lt;/ol&gt;&lt;/td&gt;&lt;/tr&gt;&lt;tr&gt;&lt;td&gt;access value&lt;/td&gt;&lt;td&gt;&lt;h3&gt;object:&lt;/h3&gt;&lt;ol&gt;&lt;li&gt;using &lt;font face=&quot;Courier New&quot;&gt;.&amp;nbsp;&lt;/font&gt;or&amp;nbsp;&amp;nbsp;&lt;font face=&quot;Courier New&quot;&gt;[] &lt;/font&gt;to get value: &lt;font face=&quot;Courier New&quot;&gt;auther.name, auther[&quot;name&quot;]&lt;/font&gt;&lt;/li&gt;&lt;li&gt;using &lt;font face=&quot;Courier New&quot;&gt;=&lt;/font&gt; to update values:&lt;font face=&quot;Courier New&quot;&gt; auther.name = &quot;othername&quot;&lt;/font&gt;&lt;/li&gt;&lt;li&gt;using &lt;font face=&quot;Courier New&quot;&gt;delete&lt;/font&gt;&amp;nbsp;to delete properties: &lt;font face=&quot;Courier New&quot;&gt;delete auther.name&lt;/font&gt;&lt;/li&gt;&lt;/ol&gt;&lt;h3&gt;array:&lt;/h3&gt;&lt;div&gt;&lt;ol&gt;&lt;li&gt;using &lt;font face=&quot;Courier New&quot;&gt;[] &lt;/font&gt;to get value:&lt;font face=&quot;Courier New&quot;&gt; auther.books[1]&lt;/font&gt;&lt;/li&gt;&lt;li&gt;&lt;font face=&quot;Courier New&quot;&gt;using&lt;/font&gt;&amp;nbsp;&lt;font face=&quot;Courier New&quot; style=&quot;font-family: &amp;#34;courier new&amp;#34;&quot;&gt;=&lt;/font&gt;&lt;span style=&quot;font-family: &amp;#34;helvetica&amp;#34;&quot;&gt;&amp;nbsp;to update&amp;nbsp;&lt;/span&gt;&lt;font face=&quot;Courier New&quot;&gt;values: auther.books[1] = &quot;hl&quot;&lt;/font&gt;&lt;/li&gt;&lt;li&gt;using&amp;nbsp;&lt;font face=&quot;Courier New&quot;&gt;delete&lt;/font&gt;&amp;nbsp;to delete items:&amp;nbsp;&lt;font face=&quot;Courier New&quot;&gt;delete auther.books[1]&lt;/font&gt;&lt;/li&gt;&lt;/ol&gt;&lt;/div&gt;&lt;/td&gt;&lt;/tr&gt;&lt;tr&gt;&lt;td&gt;&lt;a href=&quot;http://json-schema.org&quot;&gt;schema&lt;/a&gt;&lt;/td&gt;&lt;td&gt;&lt;h3&gt;&lt;font face=&quot;Courier New&quot;&gt;schema:&lt;/font&gt;&lt;/h3&gt;&lt;font face=&quot;Courier New&quot;&gt;{ &lt;br&gt;&amp;nbsp; &amp;nbsp; &quot;$schema&quot;: &quot;http://json-schema.org/draft-04/schema#&quot;, &lt;br&gt;&amp;nbsp; &amp;nbsp; &quot;title&quot;: &quot;Person&quot;, &lt;br&gt;&amp;nbsp; &amp;nbsp; &quot;description&quot;: &quot;A person&quot;, &lt;br&gt;&amp;nbsp; &amp;nbsp; &quot;type&quot;: &quot;object&quot;,&lt;br&gt;&amp;nbsp; &amp;nbsp; &quot;properties&quot;: { &lt;br&gt;&amp;nbsp; &amp;nbsp; &amp;nbsp; &amp;nbsp; &quot;name&quot;: { &lt;br&gt;&amp;nbsp; &amp;nbsp; &amp;nbsp; &amp;nbsp; &amp;nbsp; &amp;nbsp; &quot;description&quot;: &quot;A person's name&quot;, &lt;br&gt;&amp;nbsp; &amp;nbsp; &amp;nbsp; &amp;nbsp; &amp;nbsp; &amp;nbsp; &quot;type&quot;: &quot;string&quot; &lt;br&gt;&amp;nbsp; &amp;nbsp; &amp;nbsp; &amp;nbsp; &amp;nbsp;},&lt;br&gt;&amp;nbsp; &amp;nbsp; &amp;nbsp; &amp;nbsp; &amp;nbsp;&quot;age&quot;: {&lt;br&gt;&amp;nbsp; &amp;nbsp; &amp;nbsp; &amp;nbsp; &amp;nbsp; &amp;nbsp; &quot;description&quot;: &quot;A person's age&quot;,&lt;br&gt;&amp;nbsp; &amp;nbsp; &amp;nbsp; &amp;nbsp; &amp;nbsp; &amp;nbsp; &quot;type&quot;: &quot;number&quot;, &lt;br&gt;&amp;nbsp; &amp;nbsp; &amp;nbsp; &amp;nbsp; &amp;nbsp; &amp;nbsp; &quot;minimum&quot;: 18,&lt;br&gt;&amp;nbsp; &amp;nbsp; &amp;nbsp; &amp;nbsp; &amp;nbsp; &amp;nbsp; &quot;maximum&quot;: 64&lt;br&gt;&amp;nbsp; &amp;nbsp; &amp;nbsp; &amp;nbsp; &amp;nbsp; &amp;nbsp; } &lt;br&gt;&amp;nbsp; &amp;nbsp; },&lt;br&gt;&amp;nbsp; &amp;nbsp; &quot;required&quot;: [&quot;name&quot;, &quot;age&quot;]&lt;br&gt;}&lt;br&gt;&lt;/font&gt;&lt;br&gt;&lt;h3&gt;object:&lt;/h3&gt;&lt;div&gt;&lt;font face=&quot;Courier New&quot;&gt;{&lt;/font&gt;&lt;/div&gt;&lt;div&gt;&lt;font face=&quot;Courier New&quot;&gt;&amp;nbsp; &amp;nbsp; &quot;name&quot;: &quot;John Doe&quot;,&lt;/font&gt;&lt;/div&gt;&lt;div&gt;&lt;font face=&quot;Courier New&quot;&gt;&amp;nbsp; &amp;nbsp; &quot;age&quot;: 35&lt;/font&gt;&lt;/div&gt;&lt;div&gt;&lt;font face=&quot;Courier New&quot;&gt;}&lt;/font&gt;&lt;/div&gt;&lt;/td&gt;&lt;/tr&gt;&lt;/tbody&gt;&lt;/table&gt; " id="ZdUqw7-_avne0JCoBrwP-1">
                    <mxCell style="verticalAlign=top;align=left;overflow=fill;fontSize=12;fontFamily=Helvetica;html=1" vertex="1" parent="1">
                        <mxGeometry x="40" y="40" width="570" height="1080" as="geometry"/>
                    </mxCell>
                </UserObject>
                <mxCell id="T7azQFJTXaCSQQpx-dMM-1" value="JavaScript Object Notation" style="text;html=1;align=left;verticalAlign=middle;resizable=0;points=[];autosize=1;" vertex="1" parent="1">
                    <mxGeometry x="40" y="20" width="160" height="20" as="geometry"/>
                </mxCell>
            </root>
        </mxGraphModel>
    </diagram>
</mxfile>